<?xml version="1.0" encoding="UTF-8" standalone="no"?>
<svg
   width="24"
   height="24"
   viewBox="0 0 24 24"
   fill="none"
   stroke="currentColor"
   stroke-width="2"
   stroke-linecap="round"
   stroke-linejoin="round"
   class="lucide lucide-calendar-icon lucide-calendar"
   version="1.1"
   id="svg3"
   xmlns:xlink="http://www.w3.org/1999/xlink"
   xmlns="http://www.w3.org/2000/svg"
   xmlns:svg="http://www.w3.org/2000/svg">
  <defs
     id="defs3">
    <linearGradient
       id="linearGradient10">
      <stop
         style="stop-color:#3c6455;stop-opacity:1;"
         offset="0"
         id="stop10" />
      <stop
         style="stop-color:#16302a;stop-opacity:1;"
         offset="1"
         id="stop11" />
    </linearGradient>
    <linearGradient
       xlink:href="#linearGradient10"
       id="linearGradient11"
       x1="4.2861023"
       y1="4.2861114"
       x2="19.713888"
       y2="19.713898"
       gradientUnits="userSpaceOnUse" />
  </defs>
  <path
     d="M 4.3636365,3.2727273 H 19.636364 c 1.208727,0 2.181818,0.9730909 2.181818,2.1818182 V 20.727273 c 0,1.208727 -0.973091,2.181818 -2.181818,2.181818 H 4.3636365 c -1.2087273,0 -2.1818183,-0.973091 -2.1818183,-2.181818 V 5.4545455 c 0,-1.2087273 0.973091,-2.1818182 2.1818183,-2.1818182 z"
     id="path12"
     style="fill:#faf6ee;fill-opacity:1" />
  <path
     id="rect2"
     style="fill:none;fill-opacity:0;stroke:url(#linearGradient11);stroke-width:2.18182"
     d="M 4.3636365,3.2727273 H 19.636364 c 1.208727,0 2.181818,0.9730909 2.181818,2.1818182 V 20.727273 c 0,1.208727 -0.973091,2.181818 -2.181818,2.181818 H 4.3636365 c -1.2087273,0 -2.1818183,-0.973091 -2.1818183,-2.181818 V 5.4545455 c 0,-1.2087273 0.973091,-2.1818182 2.1818183,-2.1818182 z M 16.363636,1.0909091 V 5.4545455 M 7.6363636,1.0909091 v 4.3636364" />
  <path
     id="path3-6"
     style="fill:#000000;fill-opacity:0;stroke:#7a5a20;stroke-width:2.1774;stroke-opacity:1"
     d="m 15.789943,11.024227 -7.5798862,0.0072 m 3.7885182,-3.1577233 0.005,11.0694483" />
</svg>
